<mxfile host="app.diagrams.net" agent="Mozilla/5.0 (Windows NT 10.0; Win64; x64) AppleWebKit/537.36 (KHTML, like Gecko) Chrome/133.0.0.0 Safari/537.36 OPR/118.0.0.0" version="27.0.8">
  <diagram name="Page-1" id="tm1WqN0DgHZVb43frMnN">
    <mxGraphModel dx="1202" dy="660" grid="1" gridSize="10" guides="1" tooltips="1" connect="1" arrows="1" fold="1" page="1" pageScale="1" pageWidth="850" pageHeight="1100" math="0" shadow="0">
      <root>
        <mxCell id="0" />
        <mxCell id="1" parent="0" />
        <mxCell id="nWzspE8vj7getvRXUOmA-1" value="" style="shape=folder;fontStyle=1;spacingTop=10;tabWidth=130;tabHeight=30;tabPosition=left;html=1;whiteSpace=wrap;" parent="1" vertex="1">
          <mxGeometry x="230" y="50" width="290" height="150" as="geometry" />
        </mxCell>
        <mxCell id="nWzspE8vj7getvRXUOmA-7" value="" style="shape=folder;fontStyle=1;spacingTop=10;tabWidth=130;tabHeight=30;tabPosition=left;html=1;whiteSpace=wrap;" parent="1" vertex="1">
          <mxGeometry x="230" y="310" width="290" height="150" as="geometry" />
        </mxCell>
        <mxCell id="nWzspE8vj7getvRXUOmA-15" style="edgeStyle=orthogonalEdgeStyle;rounded=0;orthogonalLoop=1;jettySize=auto;html=1;exitX=0.501;exitY=0.13;exitDx=0;exitDy=0;exitPerimeter=0;strokeWidth=2;endArrow=open;endFill=0;endSize=12;dashed=1;dashPattern=8 8;" parent="1" source="nWzspE8vj7getvRXUOmA-8" edge="1">
          <mxGeometry relative="1" as="geometry">
            <mxPoint x="380.0000000000001" y="460.0000000000001" as="targetPoint" />
          </mxGeometry>
        </mxCell>
        <mxCell id="nWzspE8vj7getvRXUOmA-8" value="" style="shape=folder;fontStyle=1;spacingTop=10;tabWidth=130;tabHeight=30;tabPosition=left;html=1;whiteSpace=wrap;" parent="1" vertex="1">
          <mxGeometry x="230" y="550" width="300" height="160" as="geometry" />
        </mxCell>
        <mxCell id="nWzspE8vj7getvRXUOmA-11" style="edgeStyle=orthogonalEdgeStyle;rounded=0;orthogonalLoop=1;jettySize=auto;html=1;entryX=0;entryY=0.5;entryDx=0;entryDy=0;strokeWidth=2;endSize=12;endArrow=open;endFill=0;dashed=1;dashPattern=8 8;" parent="1" source="nWzspE8vj7getvRXUOmA-9" target="nWzspE8vj7getvRXUOmA-10" edge="1">
          <mxGeometry relative="1" as="geometry" />
        </mxCell>
        <mxCell id="nWzspE8vj7getvRXUOmA-9" value="" style="shape=folder;fontStyle=1;spacingTop=10;tabWidth=130;tabHeight=25;tabPosition=left;html=1;whiteSpace=wrap;" parent="1" vertex="1">
          <mxGeometry x="690" y="555" width="290" height="150" as="geometry" />
        </mxCell>
        <mxCell id="nWzspE8vj7getvRXUOmA-10" value="DB&lt;div&gt;&lt;br&gt;&lt;/div&gt;" style="shape=datastore;whiteSpace=wrap;html=1;" parent="1" vertex="1">
          <mxGeometry x="870" y="180" width="140" height="180" as="geometry" />
        </mxCell>
        <mxCell id="nWzspE8vj7getvRXUOmA-12" style="edgeStyle=orthogonalEdgeStyle;rounded=0;orthogonalLoop=1;jettySize=auto;html=1;entryX=-0.006;entryY=0.5;entryDx=0;entryDy=0;entryPerimeter=0;strokeWidth=2;endSize=12;dashed=1;dashPattern=8 8;endArrow=open;endFill=0;" parent="1" source="nWzspE8vj7getvRXUOmA-8" target="nWzspE8vj7getvRXUOmA-9" edge="1">
          <mxGeometry relative="1" as="geometry" />
        </mxCell>
        <mxCell id="nWzspE8vj7getvRXUOmA-13" style="edgeStyle=orthogonalEdgeStyle;rounded=0;orthogonalLoop=1;jettySize=auto;html=1;exitX=0;exitY=0;exitDx=0;exitDy=117.5;exitPerimeter=0;entryX=1.001;entryY=0.767;entryDx=0;entryDy=0;entryPerimeter=0;strokeWidth=2;endSize=12;dashed=1;dashPattern=8 8;" parent="1" source="nWzspE8vj7getvRXUOmA-9" target="nWzspE8vj7getvRXUOmA-8" edge="1">
          <mxGeometry relative="1" as="geometry">
            <mxPoint x="540" y="673" as="targetPoint" />
          </mxGeometry>
        </mxCell>
        <mxCell id="nWzspE8vj7getvRXUOmA-14" style="edgeStyle=orthogonalEdgeStyle;rounded=0;orthogonalLoop=1;jettySize=auto;html=1;exitX=0.75;exitY=1;exitDx=0;exitDy=0;exitPerimeter=0;entryX=0.726;entryY=0.139;entryDx=0;entryDy=0;entryPerimeter=0;dashed=1;dashPattern=8 8;strokeWidth=2;endSize=12;endArrow=open;endFill=0;" parent="1" source="nWzspE8vj7getvRXUOmA-7" target="nWzspE8vj7getvRXUOmA-8" edge="1">
          <mxGeometry relative="1" as="geometry" />
        </mxCell>
        <mxCell id="nWzspE8vj7getvRXUOmA-16" style="edgeStyle=orthogonalEdgeStyle;rounded=0;orthogonalLoop=1;jettySize=auto;html=1;exitX=0;exitY=0;exitDx=210;exitDy=20;exitPerimeter=0;entryX=0.724;entryY=1.008;entryDx=0;entryDy=0;entryPerimeter=0;strokeWidth=2;endArrow=open;endFill=0;dashed=1;dashPattern=8 8;endSize=12;" parent="1" source="nWzspE8vj7getvRXUOmA-7" target="nWzspE8vj7getvRXUOmA-1" edge="1">
          <mxGeometry relative="1" as="geometry" />
        </mxCell>
        <mxCell id="nWzspE8vj7getvRXUOmA-17" style="edgeStyle=orthogonalEdgeStyle;rounded=0;orthogonalLoop=1;jettySize=auto;html=1;exitX=0.5;exitY=1;exitDx=0;exitDy=0;exitPerimeter=0;entryX=0.498;entryY=0.152;entryDx=0;entryDy=0;entryPerimeter=0;strokeWidth=2;dashed=1;dashPattern=8 8;endSize=12;endArrow=open;endFill=0;" parent="1" source="nWzspE8vj7getvRXUOmA-1" target="nWzspE8vj7getvRXUOmA-7" edge="1">
          <mxGeometry relative="1" as="geometry" />
        </mxCell>
        <mxCell id="nWzspE8vj7getvRXUOmA-18" value="BLLs" style="shape=folder;fontStyle=1;spacingTop=10;tabWidth=40;tabHeight=14;tabPosition=left;html=1;whiteSpace=wrap;" parent="1" vertex="1">
          <mxGeometry x="290" y="370" width="70" height="50" as="geometry" />
        </mxCell>
        <mxCell id="nWzspE8vj7getvRXUOmA-19" value="Model" style="text;html=1;align=center;verticalAlign=middle;resizable=0;points=[];autosize=1;strokeColor=none;fillColor=none;" parent="1" vertex="1">
          <mxGeometry x="230" y="550" width="60" height="30" as="geometry" />
        </mxCell>
        <mxCell id="nWzspE8vj7getvRXUOmA-20" value="Business Logic" style="text;html=1;align=center;verticalAlign=middle;resizable=0;points=[];autosize=1;strokeColor=none;fillColor=none;" parent="1" vertex="1">
          <mxGeometry x="235" y="310" width="100" height="30" as="geometry" />
        </mxCell>
        <mxCell id="nWzspE8vj7getvRXUOmA-22" value="Models" style="shape=folder;fontStyle=1;spacingTop=10;tabWidth=40;tabHeight=14;tabPosition=left;html=1;whiteSpace=wrap;" parent="1" vertex="1">
          <mxGeometry x="345" y="610" width="70" height="50" as="geometry" />
        </mxCell>
        <mxCell id="nWzspE8vj7getvRXUOmA-25" value="Data Acces" style="text;html=1;align=center;verticalAlign=middle;resizable=0;points=[];autosize=1;strokeColor=none;fillColor=none;" parent="1" vertex="1">
          <mxGeometry x="690" y="555" width="80" height="30" as="geometry" />
        </mxCell>
        <mxCell id="nWzspE8vj7getvRXUOmA-26" value="DAOs" style="shape=folder;fontStyle=1;spacingTop=10;tabWidth=40;tabHeight=14;tabPosition=left;html=1;whiteSpace=wrap;" parent="1" vertex="1">
          <mxGeometry x="740" y="610" width="70" height="50" as="geometry" />
        </mxCell>
        <mxCell id="nWzspE8vj7getvRXUOmA-27" value="Connection" style="shape=folder;fontStyle=1;spacingTop=10;tabWidth=40;tabHeight=14;tabPosition=left;html=1;whiteSpace=wrap;" parent="1" vertex="1">
          <mxGeometry x="870" y="610" width="70" height="50" as="geometry" />
        </mxCell>
        <mxCell id="nWzspE8vj7getvRXUOmA-28" style="edgeStyle=orthogonalEdgeStyle;rounded=0;orthogonalLoop=1;jettySize=auto;html=1;exitX=0;exitY=0;exitDx=70;exitDy=23;exitPerimeter=0;entryX=0;entryY=0;entryDx=0;entryDy=23;entryPerimeter=0;dashed=1;dashPattern=8 8;" parent="1" source="nWzspE8vj7getvRXUOmA-26" target="nWzspE8vj7getvRXUOmA-27" edge="1">
          <mxGeometry relative="1" as="geometry" />
        </mxCell>
        <mxCell id="nWzspE8vj7getvRXUOmA-29" style="edgeStyle=orthogonalEdgeStyle;rounded=0;orthogonalLoop=1;jettySize=auto;html=1;exitX=0;exitY=0;exitDx=0;exitDy=41;exitPerimeter=0;entryX=0;entryY=0;entryDx=70;entryDy=41;entryPerimeter=0;dashed=1;dashPattern=8 8;" parent="1" source="nWzspE8vj7getvRXUOmA-27" target="nWzspE8vj7getvRXUOmA-26" edge="1">
          <mxGeometry relative="1" as="geometry" />
        </mxCell>
        <mxCell id="nWzspE8vj7getvRXUOmA-31" value="Presentation" style="text;html=1;align=center;verticalAlign=middle;resizable=0;points=[];autosize=1;strokeColor=none;fillColor=none;" parent="1" vertex="1">
          <mxGeometry x="235" y="50" width="90" height="30" as="geometry" />
        </mxCell>
        <mxCell id="jG8cnnssK58KYoj8DxJ5-1" value="MainFrame" style="rounded=0;whiteSpace=wrap;html=1;" vertex="1" parent="1">
          <mxGeometry x="250" y="110" width="120" height="60" as="geometry" />
        </mxCell>
        <mxCell id="jG8cnnssK58KYoj8DxJ5-2" value="ViewBills" style="rounded=0;whiteSpace=wrap;html=1;" vertex="1" parent="1">
          <mxGeometry x="380" y="110" width="120" height="60" as="geometry" />
        </mxCell>
        <mxCell id="jG8cnnssK58KYoj8DxJ5-3" value="Validators" style="shape=folder;fontStyle=1;spacingTop=10;tabWidth=40;tabHeight=14;tabPosition=left;html=1;whiteSpace=wrap;" vertex="1" parent="1">
          <mxGeometry x="405" y="370" width="70" height="50" as="geometry" />
        </mxCell>
      </root>
    </mxGraphModel>
  </diagram>
</mxfile>
